<svg xmlns="http://www.w3.org/2000/svg" viewBox="0 0 136.7 139.5">
    <defs>
        <style>
            .cls-1 {
                fill: #fff;
            }
        </style>
    </defs>
    <title>Asset 12</title>
    <g id="Layer_2" data-name="Layer 2">
        <g id="Layer_1-2" data-name="Layer 1">
            <path class="cls-1"
                d="M119.16,17.34a5.17,5.17,0,0,0-7.16.22L94.66,34.9a3.05,3.05,0,0,1-3.93.33,57.37,57.37,0,1,0,17.73,20.38,3.06,3.06,0,0,0-4.88-.76L67.21,91.22a15.8,15.8,0,0,1-22.32,0L28.33,74.66a5.18,5.18,0,0,1-.22-7.16,5.09,5.09,0,0,1,7.33-.13L52.09,84A5.6,5.6,0,0,0,60,84l40.26-40.26,0,0,19.05-19.06A5.1,5.1,0,0,0,119.16,17.34Z" />
            <circle class="cls-1" cx="131.48" cy="5.22" r="5.22" />
        </g>
    </g>
</svg>